<svg version="1.1" id="Layer_1" xmlns="http://www.w3.org/2000/svg" xmlns:xlink="http://www.w3.org/1999/xlink" x="0px" y="0px"
	 width="100%" viewBox="0 0 512 512" enable-background="new 0 0 512 512" xml:space="preserve">
<path fill="#000000" opacity="1.000000" stroke="none" 
	d="
M248.000000,513.000000 
	C166.686386,513.000000 85.872742,512.975830 5.059280,513.086914 
	C1.766223,513.091431 0.895785,512.606567 0.898249,509.061066 
	C1.014951,341.102112 1.017266,173.143066 0.889851,5.184153 
	C0.886980,1.399940 1.884785,0.915763 5.313903,0.917685 
	C173.106247,1.011723 340.898621,1.011927 508.690948,0.916570 
	C512.133240,0.914614 513.112061,1.418284 513.109192,5.189031 
	C512.982971,172.981323 512.983215,340.773712 513.103943,508.566040 
	C513.106750,512.463928 512.066284,513.092529 508.435974,513.087830 
	C421.790771,512.974915 335.145355,513.000000 248.000000,513.000000 
z"/>
<path fill="#FFFFFF" opacity="1.000000" stroke="none" 
	d="
M211.789673,302.291992 
	C199.633362,288.479584 187.689117,274.958466 175.845200,261.350006 
	C174.190521,259.448822 173.166550,260.066956 171.935867,261.556702 
	C167.549606,266.866272 163.166687,272.160278 158.449341,277.205170 
	C152.537445,283.527557 147.208374,290.391510 141.541046,296.946747 
	C130.502121,309.715240 119.668297,322.676392 108.230026,335.078583 
	C101.251022,342.645752 95.288414,351.112610 87.084129,357.658508 
	C79.472748,363.731384 55.622101,365.773010 48.590031,357.457916 
	C46.972603,355.545380 46.719910,354.989929 48.137329,353.353149 
	C54.352673,346.175842 60.588589,339.015137 66.713875,331.761292 
	C77.175919,319.371674 88.463318,307.704987 98.581963,295.007690 
	C103.383827,288.982117 108.787819,283.438690 113.865982,277.630463 
	C125.194550,264.673157 136.454834,251.655991 147.812653,238.724442 
	C153.890778,231.804169 160.113602,225.011002 166.437485,217.975388 
	C174.436890,225.626877 181.147186,234.275757 188.230011,242.598053 
	C193.444580,248.725128 198.894775,254.651031 204.197815,260.703522 
	C215.759094,273.898712 227.278748,287.130371 238.845322,300.320923 
	C244.151901,306.372498 249.573715,312.323425 254.847321,318.403290 
	C256.447571,320.248169 257.541718,320.174530 259.166870,318.395691 
	C268.794037,307.858246 278.322968,297.243988 287.391632,286.211090 
	C292.498138,279.998535 298.066986,274.167847 303.369171,268.113983 
	C314.818451,255.041580 326.476807,242.141373 337.585236,228.784500 
	C347.915649,216.363098 348.149109,216.263367 358.361267,228.777145 
	C366.223938,238.411896 374.498901,247.711334 382.632263,257.123810 
	C395.592712,272.122498 408.570435,287.106384 421.575317,302.066559 
	C428.677185,310.236267 435.838135,318.354767 442.993805,326.477539 
	C450.588257,335.098480 458.184570,343.717987 465.831024,352.292664 
	C468.109406,354.847595 467.212524,356.986176 464.886963,358.524750 
	C454.407593,365.457825 434.636688,365.060516 424.916656,355.393402 
	C413.604156,344.142395 403.456696,331.846741 393.120209,319.714020 
	C385.023376,310.210114 376.455994,301.108673 368.245331,291.699585 
	C360.503815,282.828064 352.892548,273.840515 345.346130,264.802032 
	C341.085236,259.698639 339.983826,259.773407 335.926849,265.268372 
	C332.999695,269.233002 329.282745,272.546539 326.040222,276.278442 
	C312.244537,292.156097 298.044250,307.681244 284.112946,323.442291 
	C275.878998,332.757751 267.862122,342.265350 259.770874,351.706451 
	C258.211212,353.526245 256.766907,353.436554 255.211838,351.737274 
	C251.316193,347.480286 247.319077,343.313385 243.507187,338.983124 
	C237.013306,331.606110 230.625839,324.135437 224.202286,316.696655 
	C220.137955,311.989929 216.089294,307.269684 211.789673,302.291992 
z"/>
<path fill="#FFFFFF" opacity="1.000000" stroke="none" 
	d="
M298.216125,216.286896 
	C307.318542,209.322906 313.399628,199.963852 321.199951,192.247177 
	C323.274139,190.195251 324.035278,189.272568 326.481354,192.591629 
	C331.525909,199.436523 337.582214,205.551834 343.401642,211.800308 
	C345.285187,213.822693 345.310699,215.065277 343.447235,217.160965 
	C331.575806,230.511856 319.757294,243.912537 308.106232,257.455841 
	C296.344910,271.127289 284.653320,284.851776 272.456116,298.145355 
	C268.149597,302.838989 264.259308,307.921875 259.976501,312.668121 
	C257.448059,315.470154 255.963089,314.918396 253.848892,312.404022 
	C246.061447,303.142548 238.199646,293.942200 230.267090,284.804596 
	C224.749023,278.448273 218.999268,272.293213 213.477051,265.940399 
	C203.063797,253.960846 192.768387,241.878891 182.363083,229.892380 
	C178.910538,225.915161 175.349457,222.024261 171.684921,218.242249 
	C169.772964,216.268997 169.191330,214.570969 171.172302,212.292175 
	C177.177658,205.383911 183.116608,198.417419 189.028336,191.428726 
	C190.447891,189.750549 191.466248,189.836380 192.984573,191.425461 
	C206.084061,205.135208 219.265732,218.854614 230.847610,233.814819 
	C238.346725,243.501404 246.450348,252.571411 254.333420,261.878479 
	C256.640015,264.601746 258.674286,264.698395 260.655975,261.808594 
	C267.846375,251.323105 277.822662,243.177811 284.651917,232.252808 
	C288.194397,226.585770 293.893585,222.123260 298.216125,216.286896 
z"/>
<path fill="#FFFFFF" opacity="1.000000" stroke="none" 
	d="
M306.700134,201.803375 
	C305.280945,205.154297 302.376617,206.756943 300.358948,209.121399 
	C298.669159,211.101593 297.707611,209.300110 296.844849,208.295242 
	C285.127350,194.647705 273.464386,180.953400 261.764740,167.290497 
	C260.792969,166.155655 259.565094,165.237747 258.612793,164.089203 
	C257.151123,162.326324 256.212830,163.172012 255.085480,164.484863 
	C246.877319,174.043594 238.628204,183.567139 230.394669,193.104111 
	C226.223236,197.935928 221.929367,202.669861 217.936813,207.645447 
	C215.536667,210.636536 213.911392,209.914261 211.843323,207.384872 
	C206.675873,201.064667 201.617859,194.622498 196.010620,188.708389 
	C193.317062,185.867401 193.933090,183.905930 195.951599,181.620804 
	C204.215454,172.265488 212.622116,163.035461 220.827454,153.629532 
	C231.153900,141.792130 241.326889,129.820938 251.590530,117.928543 
	C252.675659,116.671211 253.983078,115.606987 255.084229,114.361961 
	C256.835449,112.381920 258.401062,112.622162 260.034821,114.505188 
	C266.908142,122.427078 273.820587,130.315063 280.688141,138.241913 
	C286.794800,145.290512 292.837006,152.394974 298.951691,159.436508 
	C305.937866,167.481674 312.928131,175.524475 320.028046,183.468674 
	C321.291107,184.881912 320.796783,185.507019 319.850769,186.723633 
	C315.821381,191.905670 311.605988,196.913589 306.700134,201.803375 
z"/>
<path fill="#FFFFFF" opacity="1.000000" stroke="none" 
	d="
M362.767151,288.347534 
	C368.013519,294.628510 372.987061,300.671875 378.115448,306.580841 
	C389.626068,319.843353 401.099121,333.141998 412.835815,346.202728 
	C416.627014,350.421661 419.916687,355.201813 424.812408,358.398193 
	C425.565247,358.889740 427.583588,358.712830 426.814911,360.526672 
	C426.357086,361.607086 425.258942,361.917358 423.976654,362.044586 
	C408.549988,363.574829 396.301605,357.809540 386.539337,346.066406 
	C381.007751,339.412323 375.407806,332.813324 369.746216,326.269501 
	C358.609344,313.397186 347.408234,300.580475 336.231659,287.742554 
	C336.013519,287.491974 335.762878,287.270020 335.539612,287.023621 
	C326.956268,277.550903 326.956482,277.550720 335.856232,268.638367 
	C336.678650,267.814789 337.825348,267.134308 338.262726,266.141296 
	C339.508850,263.312195 340.631439,263.884888 342.323883,265.783569 
	C348.776917,273.023010 355.330933,280.172455 361.849945,287.352997 
	C362.073029,287.598755 362.325714,287.817566 362.767151,288.347534 
z"/>
<path fill="#FFFFFF" opacity="1.000000" stroke="none" 
	d="
M145.265686,296.236511 
	C153.625259,286.550568 161.766632,277.148743 169.812164,267.665619 
	C173.613800,263.184662 173.765427,263.107849 177.964478,267.473419 
	C178.866806,268.411560 179.662598,269.350861 180.279068,270.583923 
	C181.738678,273.503296 186.921722,274.696350 185.489441,278.643524 
	C184.394226,281.661743 181.220535,283.927185 178.966476,286.523224 
	C165.755692,301.738312 152.807861,317.193604 139.225067,332.069092 
	C131.953476,340.032776 125.891953,349.168762 116.956329,355.609528 
	C108.804085,361.485657 99.585770,362.362152 90.018280,361.990112 
	C89.262962,361.960754 88.301147,362.247742 88.064384,361.069305 
	C87.848106,359.992798 88.217552,359.185455 89.052994,358.458862 
	C103.582253,345.822418 114.887573,330.264404 127.562622,315.946198 
	C133.336761,309.423523 139.190521,302.971375 145.265686,296.236511 
z"/>
<path fill="#FFFFFF" opacity="1.000000" stroke="none" 
	d="
M260.275635,170.774490 
	C271.960724,184.115433 283.373901,197.215485 294.819000,210.287613 
	C296.354218,212.041092 296.612671,213.688583 294.985962,215.493256 
	C292.014404,218.789886 289.002472,222.052948 286.121704,225.427612 
	C283.933258,227.991287 282.242554,227.090622 280.482025,224.976807 
	C273.692108,216.824356 266.872925,208.696304 260.068634,200.555832 
	C258.498657,198.677536 256.919312,198.307632 255.133835,200.331360 
	C249.480377,206.739288 243.514801,212.898819 238.245728,219.606720 
	C235.867096,222.634857 232.915054,224.975632 230.545975,228.043716 
	C226.907288,224.059891 223.294159,220.237442 219.848251,216.269775 
	C218.337936,214.530762 217.524887,213.004730 219.767227,210.539337 
	C228.469055,200.971893 236.930328,191.173141 245.162094,181.197220 
	C248.216827,177.495224 252.028061,174.437622 254.663651,170.520370 
	C256.968628,167.094498 258.242401,168.580307 260.275635,170.774490 
z"/>
</svg>